<?xml version="1.0" encoding="UTF-8" standalone="no"?>
<!DOCTYPE svg PUBLIC "-//W3C//DTD SVG 1.1//EN" "http://www.w3.org/Graphics/SVG/1.1/DTD/svg11.dtd">
<svg width="100%" height="100%" viewBox="0 0 3840 2160" version="1.1" xmlns="http://www.w3.org/2000/svg" xmlns:xlink="http://www.w3.org/1999/xlink" xml:space="preserve" xmlns:serif="http://www.serif.com/" style="fill-rule:evenodd;clip-rule:evenodd;stroke-linejoin:round;stroke-miterlimit:2;">
    <g transform="matrix(1,0,0,1,-2.27374e-12,-2548.03)">
        <g id="HardWare">
            <g id="Hardware">
            </g>
            <g id="BGRHS">
            </g>
        </g>
        <g id="About-Us" serif:id="About Us" transform="matrix(2.09118,0,0,1.65661,-1989.82,1838.89)">
            <g transform="matrix(1.43459,0,0,1.62983,951.529,428.067)">
                <rect x="0" y="0" width="1280" height="800" style="fill:rgb(106,247,0);"/>
            </g>
            <g transform="matrix(2.98518,-3.78243,-2.94073,-2.40959,-1846.39,10392.9)">
                <path d="M1777.77,834.087L1840.62,834.087L1857.76,851.222L1857.76,869.998L1938.04,950.283L1955.06,950.283L1988.48,983.705L1925.63,983.705L1777.77,834.087Z"/>
            </g>
            <g transform="matrix(-2.98518,-3.78243,2.94073,-2.40959,5585.73,10392.9)">
                <path d="M1777.77,834.087L1840.62,834.087L1857.76,851.222L1857.76,869.998L1938.04,950.283L1955.06,950.283L1988.48,983.705L1925.63,983.705L1777.77,834.087Z"/>
            </g>
        </g>
        <g id="Software">
            <g id="Software1" serif:id="Software">
            </g>
        </g>
    </g>
</svg>
