<?xml version="1.0" encoding="UTF-8" standalone="no"?>
<!DOCTYPE svg PUBLIC "-//W3C//DTD SVG 1.1//EN" "http://www.w3.org/Graphics/SVG/1.1/DTD/svg11.dtd">
<svg width="100%" height="100%" viewBox="0 0 1920 1080" version="1.1" xmlns="http://www.w3.org/2000/svg" xmlns:xlink="http://www.w3.org/1999/xlink" xml:space="preserve" xmlns:serif="http://www.serif.com/" style="fill-rule:evenodd;clip-rule:evenodd;stroke-linecap:round;stroke-linejoin:round;stroke-miterlimit:1.5;">
    <rect x="0" y="0" width="1920" height="1080" style="fill:rgb(0,89,75);"/>
    <g transform="matrix(1,0,0,1,0,209)">
        <g transform="matrix(0.176913,0,0,0.176913,218.296,449.179)">
            <rect x="108" y="259" width="1594" height="569" style="fill:none;"/>
            <clipPath id="_clip1">
                <rect x="108" y="259" width="1594" height="569"/>
            </clipPath>
            <g clip-path="url(#_clip1)">
                <g transform="matrix(2.80141,0,0,1,-194.552,0)">
                    <rect x="108" y="259" width="569" height="569" style="fill:rgb(16,89,0);"/>
                </g>
                <g transform="matrix(1.53251,0,0,1,664.489,0)">
                    <rect x="108" y="259" width="569" height="569" style="fill:rgb(0,255,15);"/>
                </g>
                <g transform="matrix(0.707107,-0.707107,1.33635,1.33635,-736.31,352.187)">
                    <rect x="443" y="131" width="475" height="974" style="fill:rgb(0,255,15);"/>
                </g>
                <g transform="matrix(0.707107,-0.707107,1.33635,1.33635,-94.3101,321.187)">
                    <rect x="443" y="131" width="475" height="974"/>
                </g>
            </g>
        </g>
        <g transform="matrix(0.176913,0,0,0.176913,1154.78,449.179)">
            <rect x="108" y="259" width="1594" height="569" style="fill:none;"/>
            <clipPath id="_clip2">
                <rect x="108" y="259" width="1594" height="569"/>
            </clipPath>
            <g clip-path="url(#_clip2)">
                <g transform="matrix(2.80141,0,0,1,-194.552,0)">
                    <rect x="108" y="259" width="569" height="569" style="fill:rgb(16,89,0);"/>
                </g>
                <g transform="matrix(1.53251,0,0,1,664.489,0)">
                    <rect x="108" y="259" width="569" height="569" style="fill:rgb(0,255,15);"/>
                </g>
                <g transform="matrix(0.707107,-0.707107,1.33635,1.33635,-736.31,352.187)">
                    <rect x="443" y="131" width="475" height="974" style="fill:rgb(0,255,15);"/>
                </g>
                <g transform="matrix(0.707107,-0.707107,1.33635,1.33635,-94.3101,321.187)">
                    <rect x="443" y="131" width="475" height="974"/>
                </g>
            </g>
        </g>
        <g transform="matrix(0.176913,0,0,0.176913,682.41,449.179)">
            <rect x="108" y="259" width="1594" height="569" style="fill:none;"/>
            <clipPath id="_clip3">
                <rect x="108" y="259" width="1594" height="569"/>
            </clipPath>
            <g clip-path="url(#_clip3)">
                <g transform="matrix(2.80141,0,0,1,-194.552,0)">
                    <rect x="108" y="259" width="569" height="569" style="fill:rgb(16,89,0);"/>
                </g>
                <g transform="matrix(1.53251,0,0,1,664.489,0)">
                    <rect x="108" y="259" width="569" height="569" style="fill:rgb(0,255,15);"/>
                </g>
                <g transform="matrix(0.707107,-0.707107,1.33635,1.33635,-736.31,352.187)">
                    <rect x="443" y="131" width="475" height="974" style="fill:rgb(0,255,15);"/>
                </g>
                <g transform="matrix(0.707107,-0.707107,1.33635,1.33635,-94.3101,321.187)">
                    <rect x="443" y="131" width="475" height="974"/>
                </g>
            </g>
        </g>
        <g transform="matrix(0.176913,0,0,0.176913,1618.89,449.179)">
            <rect x="108" y="259" width="1594" height="569" style="fill:none;"/>
            <clipPath id="_clip4">
                <rect x="108" y="259" width="1594" height="569"/>
            </clipPath>
            <g clip-path="url(#_clip4)">
                <g transform="matrix(2.80141,0,0,1,-194.552,0)">
                    <rect x="108" y="259" width="569" height="569" style="fill:rgb(16,89,0);"/>
                </g>
                <g transform="matrix(1.53251,0,0,1,664.489,0)">
                    <rect x="108" y="259" width="569" height="569" style="fill:rgb(0,255,15);"/>
                </g>
                <g transform="matrix(0.707107,-0.707107,1.33635,1.33635,-736.31,352.187)">
                    <rect x="443" y="131" width="475" height="974" style="fill:rgb(0,255,15);"/>
                </g>
                <g transform="matrix(0.707107,-0.707107,1.33635,1.33635,-94.3101,321.187)">
                    <rect x="443" y="131" width="475" height="974"/>
                </g>
            </g>
        </g>
        <g transform="matrix(0.176913,0,0,0.176913,-19.1066,449.179)">
            <rect x="108" y="259" width="1594" height="569" style="fill:none;"/>
            <clipPath id="_clip5">
                <rect x="108" y="259" width="1594" height="569"/>
            </clipPath>
            <g clip-path="url(#_clip5)">
                <g transform="matrix(2.80141,0,0,1,-194.552,0)">
                    <rect x="108" y="259" width="569" height="569"/>
                </g>
                <g transform="matrix(1.53251,0,0,1,664.489,0)">
                    <rect x="108" y="259" width="569" height="569" style="fill:rgb(0,255,15);"/>
                </g>
                <g transform="matrix(0.707107,-0.707107,1.33635,1.33635,-736.31,352.187)">
                    <rect x="443" y="131" width="475" height="974" style="fill:rgb(0,255,15);"/>
                </g>
                <g transform="matrix(0.707107,-0.707107,1.33635,1.33635,-94.3101,321.187)">
                    <rect x="443" y="131" width="475" height="974"/>
                </g>
            </g>
        </g>
        <g transform="matrix(0.176913,0,0,0.176913,917.377,449.179)">
            <rect x="108" y="259" width="1594" height="569" style="fill:none;"/>
            <clipPath id="_clip6">
                <rect x="108" y="259" width="1594" height="569"/>
            </clipPath>
            <g clip-path="url(#_clip6)">
                <g transform="matrix(2.80141,0,0,1,-194.552,0)">
                    <rect x="108" y="259" width="569" height="569"/>
                </g>
                <g transform="matrix(1.53251,0,0,1,664.489,0)">
                    <rect x="108" y="259" width="569" height="569" style="fill:rgb(0,255,15);"/>
                </g>
                <g transform="matrix(0.707107,-0.707107,1.33635,1.33635,-736.31,352.187)">
                    <rect x="443" y="131" width="475" height="974" style="fill:rgb(0,255,15);"/>
                </g>
                <g transform="matrix(0.707107,-0.707107,1.33635,1.33635,-94.3101,321.187)">
                    <rect x="443" y="131" width="475" height="974"/>
                </g>
            </g>
        </g>
        <g transform="matrix(0.176913,0,0,0.176913,453.007,449.179)">
            <rect x="108" y="259" width="1594" height="569" style="fill:none;"/>
            <clipPath id="_clip7">
                <rect x="108" y="259" width="1594" height="569"/>
            </clipPath>
            <g clip-path="url(#_clip7)">
                <g transform="matrix(2.80141,0,0,1,-194.552,0)">
                    <rect x="108" y="259" width="569" height="569"/>
                </g>
                <g transform="matrix(1.53251,0,0,1,664.489,0)">
                    <rect x="108" y="259" width="569" height="569" style="fill:rgb(0,255,15);"/>
                </g>
                <g transform="matrix(0.707107,-0.707107,1.33635,1.33635,-736.31,352.187)">
                    <rect x="443" y="131" width="475" height="974" style="fill:rgb(0,255,15);"/>
                </g>
                <g transform="matrix(0.707107,-0.707107,1.33635,1.33635,-94.3101,321.187)">
                    <rect x="443" y="131" width="475" height="974"/>
                </g>
            </g>
        </g>
        <g transform="matrix(0.176913,0,0,0.176913,1389.49,449.179)">
            <rect x="108" y="259" width="1594" height="569" style="fill:none;"/>
            <clipPath id="_clip8">
                <rect x="108" y="259" width="1594" height="569"/>
            </clipPath>
            <g clip-path="url(#_clip8)">
                <g transform="matrix(2.80141,0,0,1,-194.552,0)">
                    <rect x="108" y="259" width="569" height="569"/>
                </g>
                <g transform="matrix(1.53251,0,0,1,664.489,0)">
                    <rect x="108" y="259" width="569" height="569" style="fill:rgb(0,255,15);"/>
                </g>
                <g transform="matrix(0.707107,-0.707107,1.33635,1.33635,-736.31,352.187)">
                    <rect x="443" y="131" width="475" height="974" style="fill:rgb(0,255,15);"/>
                </g>
                <g transform="matrix(0.707107,-0.707107,1.33635,1.33635,-94.3101,321.187)">
                    <rect x="443" y="131" width="475" height="974"/>
                </g>
            </g>
        </g>
    </g>
    <g transform="matrix(1,0,0,1,23.5165,117)">
        <g transform="matrix(0.940087,0,0,0.940087,331.537,-3.07411)">
            <path d="M570,303L695,182L670,278L717,288L591,411L625,307L570,303Z" style="fill:rgb(0,255,0);"/>
        </g>
        <g transform="matrix(0.588028,0,0,0.588028,624.241,224.489)">
            <circle cx="531" cy="91" r="284" style="fill:none;stroke:rgb(0,255,0);stroke-width:34.01px;"/>
        </g>
    </g>
</svg>
