<?xml version="1.0" encoding="UTF-8" standalone="no"?>
<!DOCTYPE svg PUBLIC "-//W3C//DTD SVG 1.1//EN" "http://www.w3.org/Graphics/SVG/1.1/DTD/svg11.dtd">
<svg width="100%" height="100%" viewBox="0 0 1920 1080" version="1.1" xmlns="http://www.w3.org/2000/svg" xmlns:xlink="http://www.w3.org/1999/xlink" xml:space="preserve" xmlns:serif="http://www.serif.com/" style="fill-rule:evenodd;clip-rule:evenodd;stroke-linejoin:round;stroke-miterlimit:2;">
    <rect x="0" y="0" width="1920" height="1080" style="fill:rgb(0,89,75);"/>
    <g transform="matrix(0.897196,0,0,0.740741,197.383,134.444)">
        <rect x="850" y="183" width="1070" height="729"/>
    </g>
    <g transform="matrix(1,0,0,1,-37,0.5)">
        <circle cx="1116.5" cy="539.5" r="45.5" style="fill:rgb(0,255,0);"/>
    </g>
    <g transform="matrix(1.77938,0,0,1.10312,-1014.19,-48.5132)">
        <rect x="1232" y="325" width="417" height="417" style="fill:rgb(0,255,0);"/>
    </g>
    <g transform="matrix(1,0,0,1,0,9.5)">
        <rect x="888" y="494.5" width="72" height="72" style="fill:rgb(0,255,0);"/>
    </g>
    <g transform="matrix(12.3056,0,0,1,-10927.3,9.5)">
        <rect x="888" y="494.5" width="72" height="72"/>
    </g>
    <g transform="matrix(0.93,0,0,0.93,132.7,13.83)">
        <g transform="matrix(0.821355,0,0,0.819672,200.554,-194.934)">
            <path d="M255,566C255,700.758 364.019,810 498.5,810C632.981,810 742,700.757 742,566L620.25,566C620.25,633.379 565.741,688 498.5,688C431.259,688 376.75,633.379 376.75,566L255,566Z"/>
        </g>
        <g transform="matrix(1.03093,0,0,1.02041,-12.6804,-1.48979)">
            <rect x="410" y="73" width="97" height="196"/>
        </g>
        <g transform="matrix(1.03093,0,0,0.367347,-12.6804,46.1837)">
            <rect x="410" y="73" width="97" height="196" style="fill:rgb(5,21,255);"/>
        </g>
        <g transform="matrix(1.03093,0,0,1.02041,287.32,-1.48979)">
            <rect x="410" y="73" width="97" height="196"/>
        </g>
        <g transform="matrix(1.03093,0,0,0.367347,287.32,46.1837)">
            <rect x="410" y="73" width="97" height="196" style="fill:rgb(212,0,26);"/>
        </g>
    </g>
    <g transform="matrix(0.940087,0,0,0.940087,95.0538,-130.056)">
        <path d="M570,303L695,182L670,278L717,288L591,411L625,307L570,303Z" style="fill:rgb(0,255,0);"/>
    </g>
</svg>
