<?xml version="1.0" encoding="UTF-8" standalone="no"?>
<!DOCTYPE svg PUBLIC "-//W3C//DTD SVG 1.1//EN" "http://www.w3.org/Graphics/SVG/1.1/DTD/svg11.dtd">
<svg width="100%" height="100%" viewBox="0 0 1920 1080" version="1.1" xmlns="http://www.w3.org/2000/svg" xmlns:xlink="http://www.w3.org/1999/xlink" xml:space="preserve" xmlns:serif="http://www.serif.com/" style="fill-rule:evenodd;clip-rule:evenodd;stroke-linejoin:round;stroke-miterlimit:2;">
    <g transform="matrix(1,0,0,1,22.3542,0)">
        <rect x="-25.153" y="0" width="1925.6" height="1080" style="fill:rgb(0,87,75);"/>
    </g>
    <g transform="matrix(1.37092e-16,2.23887,-1,6.12323e-17,1322.02,-1425.1)">
        <path d="M859.201,442.105C859.201,429.801 854.739,419.811 849.243,419.811L829.327,419.811C823.832,419.811 819.37,429.801 819.37,442.105L819.37,520.947C819.37,533.252 823.832,543.241 829.327,543.241L849.243,543.241C854.739,543.241 859.201,533.252 859.201,520.947L859.201,442.105Z"/>
    </g>
    <g transform="matrix(1.37092e-16,2.23887,-1,6.12323e-17,1460.78,-1425.1)">
        <path d="M859.201,442.105C859.201,429.801 854.739,419.811 849.243,419.811L829.327,419.811C823.832,419.811 819.37,429.801 819.37,442.105L819.37,520.947C819.37,533.252 823.832,543.241 829.327,543.241L849.243,543.241C854.739,543.241 859.201,533.252 859.201,520.947L859.201,442.105Z" style="fill:rgb(95,255,0);"/>
    </g>
    <g transform="matrix(2.26633,0,0,1.50918,-1078.18,-224.21)">
        <path d="M859.201,434.765C859.201,426.512 854.739,419.811 849.243,419.811L829.327,419.811C823.832,419.811 819.37,426.512 819.37,434.765L819.37,528.288C819.37,536.541 823.832,543.241 829.327,543.241L849.243,543.241C854.739,543.241 859.201,536.541 859.201,528.288L859.201,434.765Z" style="fill:rgb(95,255,0);"/>
    </g>
    <g transform="matrix(1,0,0,1,-4.00021,25.3344)">
        <path d="M852.523,562.704C852.523,555.913 847.01,550.401 840.22,550.401L815.614,550.401C808.823,550.401 803.31,555.913 803.31,562.704L803.31,680.494C803.31,687.284 808.823,692.797 815.614,692.797L840.22,692.797C847.01,692.797 852.523,687.284 852.523,680.494L852.523,562.704Z" style="fill:rgb(95,255,0);"/>
    </g>
    <g transform="matrix(0.600352,0,0,2.90299,325.837,-931.183)">
        <path d="M852.523,552.945C852.523,551.541 847.01,550.401 840.22,550.401L815.614,550.401C808.823,550.401 803.31,551.541 803.31,552.945L803.31,690.253C803.31,691.657 808.823,692.797 815.614,692.797L840.22,692.797C847.01,692.797 852.523,691.657 852.523,690.253L852.523,552.945Z" style="fill:rgb(95,255,0);"/>
    </g>
    <g transform="matrix(1,0,0,1,9.62534,-37.5249)">
        <rect x="823.917" y="446.886" width="35.509" height="62.594" style="fill:rgb(95,255,0);"/>
    </g>
    <g transform="matrix(1,0,0,1,-118.542,36.8851)">
        <rect x="1062.34" y="238.489" width="742.681" height="357.151"/>
    </g>
    <g transform="matrix(0.954373,0,0,1.14228,95.4369,-62.0135)">
        <rect x="1000.62" y="323.747" width="635.558" height="251.988" style="fill:rgb(95,255,0);"/>
    </g>
    <g transform="matrix(1,0,0,1,9.98179,34.5914)">
        <ellipse cx="985.818" cy="417.127" rx="35.8" ry="36.822" style="fill:rgb(95,255,0);"/>
    </g>
    <g transform="matrix(0.670401,0,0,0.5,328.827,176.539)">
        <path d="M905.845,308.102C905.845,301.895 902.087,296.856 897.457,296.856L723.302,296.856C718.673,296.856 714.915,301.895 714.915,308.102L714.915,330.595C714.915,336.802 718.673,341.841 723.302,341.841L897.457,341.841C902.087,341.841 905.845,336.802 905.845,330.595L905.845,308.102Z" style="fill:rgb(95,255,0);"/>
    </g>
    <g transform="matrix(1,0,0,0.840517,43.0979,67.7518)">
        <path d="M825.275,300.714C825.275,290.4 818.237,282.026 809.568,282.026L635.101,282.026C626.432,282.026 619.394,290.4 619.394,300.714L619.394,338.088C619.394,348.402 626.432,356.775 635.101,356.775L809.568,356.775C818.237,356.775 825.275,348.402 825.275,338.088L825.275,300.714Z"/>
    </g>
    <g transform="matrix(3.30677,0,0,0.420259,-2051,201.983)">
        <path d="M825.275,300.714C825.275,290.4 824.211,282.026 822.9,282.026L621.769,282.026C620.458,282.026 619.394,290.4 619.394,300.714L619.394,338.088C619.394,348.402 620.458,356.775 621.769,356.775L822.9,356.775C824.211,356.775 825.275,348.402 825.275,338.088L825.275,300.714Z"/>
    </g>
    <g transform="matrix(0.474886,0,0,1,479.986,0)">
        <rect x="892.27" y="324.967" width="17.9" height="22.493"/>
    </g>
    <g transform="matrix(0.474886,0,0,1,492.819,-5.68434e-14)">
        <rect x="892.27" y="324.967" width="17.9" height="22.493"/>
    </g>
</svg>
