<?xml version="1.0" encoding="UTF-8" standalone="no"?>
<!DOCTYPE svg PUBLIC "-//W3C//DTD SVG 1.1//EN" "http://www.w3.org/Graphics/SVG/1.1/DTD/svg11.dtd">
<svg width="100%" height="100%" viewBox="0 0 3840 2160" version="1.1" xmlns="http://www.w3.org/2000/svg" xmlns:xlink="http://www.w3.org/1999/xlink" xml:space="preserve" xmlns:serif="http://www.serif.com/" style="fill-rule:evenodd;clip-rule:evenodd;stroke-linejoin:round;stroke-miterlimit:2;">
    <g transform="matrix(3,0,0,2.7,0,0)">
        <rect x="0" y="0" width="1280" height="800"/>
    </g>
    <g transform="matrix(2.09118,0,0,1.65661,-1989.82,-709.14)">
        <g transform="matrix(8.71462,0,0,8.71462,-14541.1,-6840.68)">
            <path d="M1777.77,834.087L1840.62,834.087L1857.76,851.222L1857.76,869.998L1938.04,950.283L1955.06,950.283L1988.48,983.705L1925.63,983.705L1777.77,834.087Z" style="fill:rgb(106,247,0);"/>
        </g>
        <g transform="matrix(8.71462,0,0,-8.71462,-14541.1,9000.68)">
            <path d="M1777.77,834.087L1840.62,834.087L1857.76,851.222L1857.76,869.998L1866.57,878.815L1844.28,901.387L1777.77,834.087Z" style="fill:rgb(0,87,75);"/>
        </g>
        <g transform="matrix(8.71462,0,0,-8.71462,-14541.1,9000.68)">
            <path d="M1882.52,940.081L1905.21,917.45L1938.04,950.283L1955.06,950.283L1988.48,983.705L1925.63,983.705L1882.52,940.081Z" style="fill:rgb(0,87,75);"/>
        </g>
    </g>
</svg>
